# xmcd
#
# Track frame offsets: 
#        150
#        12585
#        28040
#        42572
#        58405
#        70355
#        80475
#        93957
#        103787
#        121115
#        131477
#        147807
#        154255
#        167297
#
# Disc length: 2425 seconds
#
# Revision: 5
# Processed by: cddbd v1.5.2PL0 Copyright (c) Steve Scherf et al.
# Submitted via: ExactAudioCopy v0.99pb5
#
DISCID=be09770e
DTITLE=Immediate Blues Collection - Stroll On
DYEAR=1991
DGENRE=Blues
TTITLE0=The Yardbirds  Stroll On
TTITLE1=Stuff Smith  Howlin' for My Darling
TTITLE2=Rod Stewart  So Much to Say
TTITLE3=Albert Lee and Tony Cotton  Water on My Fire
TTITLE4=The All Stars featuring Jeff Beck  Steelin'
TTITLE5=Cyril Davis and the All Stars  Not Fade Away
TTITLE6=The All Stars featuring Nicky Hopkins  Piano Shuffle
TTITLE7=John Mayall and the Bluesbreakers featuring Eric Clapton  I'm Yo
TTITLE7=ur Witchdoctor
TTITLE8=Albert Lee  Crosstown Link
TTITLE9=TS McPhee  Someone to Love Me
TTITLE10=Savoy Brown Blues Band  I Can't Quit You, Baby
TTITLE11=Eric Clapton and Jimmy Page  Choker
TTITLE12=JoAnn Kelly  I Feel So Good
TTITLE13=Porcupine Juice  Santa Barbara Machine Head
EXTD=YEAR: 1991
EXTT0=
EXTT1=
EXTT2=
EXTT3=
EXTT4=
EXTT5=
EXTT6=
EXTT7=
EXTT8=
EXTT9=
EXTT10=
EXTT11=
EXTT12=
EXTT13=
PLAYORDER=
